<?xml version="1.0" encoding="UTF-8" standalone="no"?>
<!-- Uploaded to: SVG Repo, www.svgrepo.com, Generator: SVG Repo Mixer Tools -->

<svg
   fill="#000000"
   version="1.1"
   id="Capa_1"
   width="800px"
   height="800px"
   viewBox="0 0 310.157 310.156"
   xml:space="preserve"
   sodipodi:docname="holding-up-a-microphone-right-hand.svg"
   inkscape:version="1.4 (e7c3feb100, 2024-10-09)"
   xmlns:inkscape="http://www.inkscape.org/namespaces/inkscape"
   xmlns:sodipodi="http://sodipodi.sourceforge.net/DTD/sodipodi-0.dtd"
   xmlns="http://www.w3.org/2000/svg"
   xmlns:svg="http://www.w3.org/2000/svg"><defs
   id="defs4" /><sodipodi:namedview
   id="namedview4"
   pagecolor="#ffffff"
   bordercolor="#000000"
   borderopacity="0.25"
   inkscape:showpageshadow="2"
   inkscape:pageopacity="0.0"
   inkscape:pagecheckerboard="0"
   inkscape:deskcolor="#d1d1d1"
   inkscape:zoom="1.49"
   inkscape:cx="399.66443"
   inkscape:cy="400"
   inkscape:window-width="2560"
   inkscape:window-height="1403"
   inkscape:window-x="0"
   inkscape:window-y="0"
   inkscape:window-maximized="1"
   inkscape:current-layer="Capa_1" />
<g
   id="g4"
   transform="matrix(-1,0,0,1,310.15654,0)">
	<g
   id="g3">
		<path
   d="m 266.177,177.269 c -0.172,-15.678 -11.021,-19.927 -24.207,-19.82 l -65.899,0.012 c -2.91,-6.404 -5.83,-18.135 -14.242,-24.815 -14.98,-11.895 -27.469,-6.413 -36.887,-0.785 -21.281,12.704 -45.342,39.316 -59.986,44.25 -18.006,6.066 -39.805,4.485 -39.805,4.485 v 91.684 c 37.328,0 60.121,13.122 79.125,20.917 43.066,17.662 73.182,17.357 88.932,16.772 32.658,-1.215 35.4,-27.871 36.285,-33.175 8.477,-3.372 14.047,-8.527 16.602,-15.342 0.998,-2.656 1.505,-5.561 1.505,-8.605 0,-5.12 -1.406,-9.727 -2.656,-12.816 7.424,-4.092 12.028,-9.552 13.707,-16.24 0.467,-1.837 0.676,-3.779 0.701,-5.774 0.151,-13.562 -6.673,-16.868 -6.673,-16.868 0,0 13.672,-8.201 13.498,-23.88 z"
   id="path1" />
		<path
   d="M 254.375,5.027 238.748,1.178 c -21.584,-5.317 -43.39,7.869 -48.707,29.453 l -1.006,4.087 93.785,23.102 1.008,-4.086 C 289.144,32.152 275.96,10.345 254.375,5.027 Z"
   id="path2" />
		<path
   d="m 181.139,66.775 c -3.375,13.702 0.713,27.485 9.666,37.092 l -7.265,40.098 h 57.525 l 8.067,-25.729 c 12.392,-4.347 22.414,-14.657 25.789,-28.358 L 279.073,73.019 185.29,49.916 Z"
   id="path3" />
	</g>
</g>
<path
   style="fill:#ffffff;stroke-width:0.260199"
   d="m 132.70094,309.86003 c 15.9538,-0.48575 32.86953,-3.40559 50.37588,-8.69541 9.68416,-2.92623 19.85776,-6.77158 31.97705,-12.08649 8.97925,-3.93784 13.34192,-5.73472 18.73431,-7.71622 15.45609,-5.67951 29.96597,-8.54523 46.10907,-9.1066 l 4.8899,-0.17004 v -45.58938 -45.58937 l -8.39141,-0.14074 c -8.69805,-0.14588 -13.75306,-0.58303 -20.23046,-1.74949 -3.64906,-0.65713 -9.21589,-2.09344 -11.61795,-2.99758 -5.51304,-2.0751 -12.43322,-6.85548 -24.28949,-16.77889 -2.93374,-2.45547 -7.91004,-6.61859 -11.05845,-9.25137 -17.66496,-14.77193 -27.74668,-21.24479 -36.68803,-23.55515 -3.43104,-0.88656 -8.62388,-0.85061 -12.09925,0.0838 -3.23107,0.86868 -6.02532,2.16808 -9.18346,4.27053 -6.65804,4.43244 -9.80956,8.93591 -14.63122,20.90783 l -2.35787,5.85447 -36.546648,0.14525 c -32.945237,0.13093 -36.71877,0.18803 -38.293282,0.57941 -4.930271,1.22552 -7.604104,2.59434 -10.233126,5.23865 -2.152439,2.16495 -3.458716,4.49394 -4.319968,7.70218 -0.848264,3.15985 -0.854296,8.98786 -0.01275,12.33876 1.416398,5.64 5.337275,11.65848 10.081626,15.47511 1.063374,0.85544 2.139254,1.67878 2.390842,1.82964 0.429276,0.25742 0.425399,0.29261 -0.06296,0.57165 -1.065219,0.60865 -2.983796,2.94917 -3.889036,4.74432 -1.228427,2.43606 -1.886208,4.83424 -2.248239,8.19674 -0.944866,8.77586 2.029218,16.21409 8.70175,21.76325 1.209938,1.00623 2.965729,2.27739 3.901763,2.8248 l 1.701882,0.9953 -0.520463,1.32043 c -0.879283,2.23075 -1.762169,6.16574 -2.034727,9.06872 -1.040701,11.08429 4.748791,20.41598 15.736506,25.36461 l 2.115716,0.95288 0.676875,3.41226 c 1.695156,8.54566 4.725676,14.65141 9.781441,19.70717 5.841226,5.84123 13.288138,9.01049 23.160428,9.85665 3.9472,0.33831 11.54545,0.43026 18.37376,0.22236 z"
   id="path4" /><path
   style="fill:#ffffff;stroke-width:0.260199"
   d="m 126.33009,143.5642 c 0.002,-0.17889 -1.59877,-9.1893 -3.55775,-20.02313 l -3.56179,-19.69789 1.56991,-1.89861 c 4.08646,-4.942065 7.02593,-11.02769 8.43351,-17.459994 0.68527,-3.131453 0.93964,-9.63127 0.51039,-13.0415 -0.29628,-2.353794 -4.69521,-20.787463 -5.04383,-21.136083 -0.15966,-0.159654 -92.589092,22.513114 -93.122492,22.842776 -0.385203,0.238065 4.21268,18.598669 5.432183,21.692202 4.094274,10.386019 12.297469,18.589219 22.729235,22.729259 l 1.43538,0.56965 4.028796,12.87358 4.028792,12.87357 28.556822,7.8e-4 c 22.670224,3.8e-4 28.557654,-0.0663 28.560844,-0.32454 z"
   id="path5" /><path
   style="fill:#ffffff;stroke-width:0.260199"
   d="M 74.480537,46.082612 C 99.846165,39.819154 120.6666,34.627772 120.74816,34.546207 121.03531,34.25906 119.04781,27.269544 117.93235,24.643688 112.42648,11.682675 100.68243,2.6675033 86.515645,0.52705942 84.040925,0.15315659 78.098813,0.15229669 75.572336,0.52547762 72.824035,0.93142106 55.943213,5.0780223 52.753598,6.1306669 42.395191,9.5491743 33.966427,16.999713 29.253199,26.90366 c -2.551231,5.360915 -3.581983,9.57195 -3.80454,15.543004 -0.171816,4.609724 0.103507,7.409073 1.173769,11.934392 0.596502,2.52215 0.788691,2.999935 1.223236,3.040973 0.28355,0.02679 21.269241,-5.07596 46.634873,-11.339417 z"
   id="path6" /><path
   style="fill:#ffffff;stroke-width:0.260199"
   d="m 135.24044,309.63872 c 18.33942,-0.9175 38.47051,-5.06473 57.67567,-11.88184 6.27722,-2.22817 13.10469,-4.96734 23.0435,-9.245 21.30154,-9.16818 31.60869,-12.44401 46.45044,-14.76291 5.48944,-0.85769 15.33178,-1.67279 22.18195,-1.83702 0.10733,-0.003 0.19515,-20.43679 0.19515,-45.40937 0,-36.14579 -0.0663,-45.40642 -0.32525,-45.41314 -11.20449,-0.29092 -17.5923,-0.53881 -19.97026,-0.77498 -4.04975,-0.40222 -9.77599,-1.38339 -13.68332,-2.34459 -10.68735,-2.6291 -14.459,-5.07207 -37.31565,-24.17015 -20.6811,-17.28029 -29.36381,-23.24471 -38.41727,-26.39004 -3.43655,-1.19391 -6.20047,-1.58619 -9.82924,-1.39504 -4.99766,0.26325 -9.4129,1.85964 -14.18705,5.12951 -6.92497,4.74301 -9.82787,9.23249 -16.02242,24.7795 l -0.6998,1.75634 -14.21822,0.0231 c -7.82002,0.0127 -24.46354,0.11453 -36.985609,0.22619 -22.342532,0.19925 -22.806096,0.21373 -24.841215,0.77603 -7.047558,1.94721 -11.536359,6.17834 -13.308713,12.54473 -0.548702,1.97098 -0.758182,7.48872 -0.381989,10.06155 0.942711,6.44722 5.138038,13.38918 10.806448,17.8813 1.22429,0.97023 2.225985,1.80621 2.225985,1.85773 0,0.0515 -0.61472,0.72162 -1.366044,1.48909 -3.386717,3.45952 -5.138929,8.52022 -5.138929,14.84215 0,6.98975 2.364516,12.46762 7.497789,17.37013 1.73893,1.66075 2.935175,2.55482 6.784781,5.07092 0.05595,0.0366 -0.196914,0.97694 -0.561923,2.08971 -1.395117,4.25315 -1.845794,6.95534 -1.834629,11.00009 0.01182,4.28791 0.478925,6.55714 2.018653,9.80718 2.588679,5.46414 6.566974,9.27597 13.085966,12.53842 1.973552,0.98767 2.696548,1.48368 2.795441,1.9178 0.07336,0.32207 0.379128,1.75648 0.679473,3.18757 1.734413,8.2641 4.880716,14.45599 9.855638,19.39576 5.361052,5.32317 11.875717,8.30088 20.790057,9.50269 3.40704,0.45933 16.92292,0.68059 23.00059,0.37653 z"
   id="path7" /></svg>
